<svg version="1" xmlns="http://www.w3.org/2000/svg" viewBox="0 0 1380 180"><path fill="#1A4491" d="M8.952 180H0l30.333-82.522L0 0h8.952l30.5 97.478"/><path fill="#17397A" d="M276 180H7l30.333-82.522L7 0h269c2.21 0 4 1.79 4 4v172c0 2.21-1.79 4-4 4z"/><path fill="#122C5D" d="M100 158.018h180v18"/><path fill="#17397A" d="M539.02 180h-98c-2.208 0-4-1.79-4-4V4c0-2.21 1.792-4 4-4h98c2.21 0 4 1.79 4 4v172c0 2.21-1.79 4-4 4z"/><path fill="#122C5D" d="M437.02 176.018v-18h43M543.02 176.018v-18h-43"/><g><path fill="#1A4491" d="M1371.048 180H1380l-30.333-82.522L1380 0h-8.952l-30.5 97.478"/><path fill="#17397A" d="M1104 180h269l-30.333-82.522L1373 0h-269c-2.21 0-4 1.79-4 4v172c0 2.21 1.79 4 4 4z"/><path fill="#122C5D" d="M1280 158.018h-180v18"/><path fill="#17397A" d="M840.98 180h98c2.208 0 4-1.79 4-4V4c0-2.21-1.792-4-4-4h-98c-2.21 0-4 1.79-4 4v172c0 2.21 1.79 4 4 4z"/><path fill="#122C5D" d="M942.98 176.018v-18h-43M836.98 176.018v-18h43"/></g></svg>