<svg width="69" height="35" viewBox="0 0 69 35" xmlns="http://www.w3.org/2000/svg"><title>websee_logo</title><g fill="#FFF" fill-rule="evenodd"><path d="M14.29 31.62l.01-.03 4.76-15.65-3.52-11.57C14.97 2.5 13.52.99 12.3.99H1.41C.19.99-.34 2.5.23 4.37l8.25 27.16c.55 1.82 1.94 3.3 3.13 3.37h-.03c1.08-.35 2.22-1.68 2.71-3.28z"/><path d="M41.48 1.14c-.14-.06-.3-.09-.46-.09H27.05c-1.22 0-2.67 1.52-3.23 3.38l-8.25 27.16-.01.03c-.49 1.6-1.63 2.93-2.71 3.28.14.05.29.08.46.08h13.12-.03H27.27c1.22 0 2.67-1.52 3.24-3.39l8.25-27.16c.49-1.61 1.63-2.95 2.72-3.29zM67.6 1.07H56.69c-1.21 0-2.66 1.51-3.23 3.38l-8.25 27.16-.01.03c-.49 1.6-1.63 2.93-2.71 3.27.14.06.3.09.47.09H49.32l-.09-.01h8.06c1.21 0 2.66-1.51 3.228-3.38L68.77 4.45c.57-1.87.04-3.38-1.17-3.38z"/><path d="M43.84 31.61l4.84-15.93-3.42-11.24c-.47-1.56-1.56-2.87-2.62-3.26-1.05.39-2.14 1.69-2.61 3.25l-5.04 16.59L38.2 31.6c.55 1.81 1.51 3.29 2.71 3.37-.07-.01.28-.03.21-.06 1.08-.34 2.22-1.67 2.71-3.27l.01-.03z"/></g></svg>