<svg xmlns="http://www.w3.org/2000/svg" width="300" height="74.269" viewBox="0 113.11 300 74.269"><g fill="#004391"><path d="M57.67 152.73c-1.505-.942-3.116-1.837-4.864-2.69 1.748 1.137 3.36 2.39 4.864 3.748 5.524 4.99 9.448 11.397 12.467 18.59l3.912-.64c-3.09-6.942-7.797-13.642-16.38-19.01zM51.03 156.292c2.475 2.65 4.68 5.688 6.64 9.048.97 1.67 1.884 3.418 2.738 5.242l3.903.933c-1.93-3.67-4.154-6.796-6.64-9.466-2.058-2.215-4.282-4.118-6.64-5.758zM57.67 145.388c-1.562-.563-3.184-1.048-4.864-1.456 1.67.738 3.292 1.543 4.864 2.437 8.573 4.882 15.495 12.3 20 23.427l2.768-2.592c-4.875-10.816-12.468-18.088-22.768-21.817z"/><path d="M57.67 138.835c-2.437-.485-4.97-.787-7.572-.932 2.64.524 5.165 1.204 7.572 2.058 11.088 3.923 19.63 11.43 24.622 23.942l1.203-4.455c-5.873-12.554-14.96-18.437-25.825-20.612z"/></g><g fill="#004391"><path d="M40.32 122.563c-2.028-1.466-3.98-2.98-5.767-4.602-.767-.688-1.495-1.387-2.194-2.115l-3.573-.553c1.874 1.408 3.786 2.748 5.767 4 1.864 1.174 3.776 2.28 5.766 3.27zM39.01 126.738c-1.476-.806-2.98-1.65-4.456-2.524-4.776-2.796-9.33-5.854-12.38-8.922l-4.378.553c5.117 3.786 10.737 6.806 16.758 9.223 1.465.592 2.95 1.145 4.456 1.67zM34.553 136c-12.913-2.932-25.01-7.485-30.65-13.64L.04 126.24c8.71 6.913 20.494 10.282 34.515 11.058 2.38.136 4.825.194 7.34.185-2.458-.437-4.915-.932-7.342-1.485zM39.815 131.883c-1.737-.602-3.495-1.252-5.262-1.94-8.418-3.273-16.864-7.438-22.068-12.525l-4.33 2.126c5.807 4.932 14.788 8.602 26.398 11.243 1.7.388 3.447.757 5.262 1.096z"/></g><g fill="#004391"><path d="M23.728 155.457c2.7-2.962 5.03-6.234 7.02-9.777.883-1.573 1.7-3.204 2.456-4.884-.767 1.117-1.583 2.204-2.456 3.252-2.068 2.515-4.408 4.874-7.02 7.078-4.098 3.466-8.835 6.573-14.145 9.36l.806 5.31c5.212-2.795 9.63-6.27 13.338-10.34zM23.728 142.213c.894-.932 1.72-1.893 2.486-2.874-.806.64-1.632 1.27-2.486 1.892-3.582 2.602-7.553 4.952-11.95 7.04l-1.623 4.378c5.263-3.174 9.913-6.592 13.573-10.437zM30.748 165.428c5.175-6.807 8.378-15.02 9.505-24.747-2.01 6.495-5.204 12.3-9.505 17.436-2.08 2.477-4.418 4.807-7.02 6.98-3.223 2.7-6.845 5.176-10.854 7.418l3.466 5.545c2.68-1.603 5.146-3.35 7.388-5.264 2.64-2.243 4.99-4.698 7.02-7.368zM46.553 139.388c-.126 14.417-5.515 26.39-15.806 36.087-2.126 2.01-4.467 3.92-7.02 5.737-.806.574-1.63 1.146-2.476 1.7l2.477 1.67 4.146 2.796c.99-.768 1.95-1.544 2.874-2.34 13.893-11.96 20.38-28.017 15.806-45.65z"/></g><g fill="#DF5E16"><path d="M54.505 115.437c.942-.233 1.952-.31 3.03-.233l-3.03-1.63-.835-.448c-10.116-.504-11.515 11.39-7.922 21.602-.36-10.845 2.99-17.883 8.757-19.29zM63.418 120.476c.263-.01.524-.02.796-.01l-.796-.738-1.923-1.776c-1.505-.05-2.825.184-3.96.67-1.196.504-2.205 1.3-3.03 2.36-2.116 2.718-3.067 7.184-3.04 13.125.778-3.204 1.798-5.815 3.04-7.874.894-1.466 1.903-2.65 3.03-3.553 1.698-1.37 3.66-2.097 5.883-2.204zM68.805 126.388l-1.64-2.466c-1.418-.01-2.66.3-3.748.893-2.863 1.554-4.66 5.04-5.884 9.563l-.02.057.02-.03c1.71-2.844 3.66-5.02 5.884-6.377 1.64-1.008 3.427-1.57 5.388-1.64zM70.398 130.505c-2.835.835-5.116 2.748-6.98 5.447-.27.388-.544.806-.795 1.232.26-.252.523-.504.795-.738 2.107-1.894 4.397-3.3 7.116-3.622l-.136-2.32z"/></g><path fill="#004391" d="M140.738 131.98c-.078.39-.137.796-.176 1.224-.105 1.058-.154 2.223-.145 3.495 0 1.086.04 2.047.126 2.902.05.466.116.913.194 1.33v-8.952zm0-6.96v.087l-8.224 11.136 8.224 11.117v.437h-8.39l-4.097-6.408-4.097 6.407h-8.02l7.864-11.553-8.106-11.223h8.524l3.835 6.088 3.834-6.087h8.654zm-25.563 22.776v-5.534h-11.03c-.23 0-.484.01-.727-.02-.262-.02-.476-.118-.66-.273-.088-.07-.155-.166-.224-.302-.06-.136-.097-.31-.097-.544v-2.476h12.32v-4.94h-12.32v-1.73c0-.097 0-.213.01-.35.01-.136.048-.262.098-.398s.126-.262.243-.36c.136-.106.3-.193.504-.242.204-.058.408-.078.632-.078h11.154v-5.534H98.854c-.27 0-.563.01-.883.058-.31.048-.63.136-.95.262-.32.136-.62.33-.902.592-.282.252-.486.534-.632.825-.136.29-.232.583-.27.883-.05.302-.07.603-.07.895v15.622c0 .36.01.7.04 1.02.027.33.125.64.27.95.137.3.38.602.718.894.29.233.593.408.894.515.302.117.61.185.912.224.312.03.63.04.942.04l16.253.002zm183.854 0v-5.534H288c-.23.01-.475 0-.727-.02-.254-.03-.477-.118-.66-.273-.09-.06-.156-.166-.224-.302-.06-.136-.1-.31-.1-.544v-2.476h12.32v-4.94h-12.32v-1.73c0-.097 0-.213.01-.35.01-.136.04-.262.1-.398.05-.136.126-.262.24-.36.14-.106.304-.193.506-.242.205-.058.418-.078.632-.078h11.154v-5.534h-16.224c-.27-.01-.563.02-.884.058-.31.048-.63.136-.95.262-.32.136-.62.34-.903.592-.28.262-.484.534-.63.825-.136.29-.222.583-.27.883-.05.302-.08.602-.067.894v15.62c-.012.36.01.7.04 1.02.026.33.125.642.27.952.138.3.38.602.718.893.293.233.594.408.895.515.302.116.612.184.912.223.32.03.63.048.942.04h16.25v.003zm-29.38 0V130.68h8.06v-5.66h-23.418v5.66h8.07v17.116h7.288zM253 125.02h-5.61v13.573c.01.058 0 .126-.01.213s-.04.165-.09.224c-.058.078-.136.106-.25.116-.128-.01-.244-.078-.35-.194-.098-.117-.185-.243-.263-.36l-8.225-11.717c-.348-.495-.738-.884-1.164-1.165-.417-.292-.846-.505-1.28-.63-.447-.137-.866-.224-1.265-.273-.396-.04-.755-.048-1.067-.048-.66 0-1.292.067-1.893.212-.603.146-1.146.38-1.62.69-.477.32-.856.737-1.127 1.25-.283.516-.418 1.147-.427 1.885v19h5.61v-13.505c.01-.214.037-.36.097-.457.06-.087.127-.146.194-.175.078-.01.127-.02.166-.02.116.01.22.068.33.194.106.117.203.233.28.36l8.166 11.62c.348.495.73.894 1.115 1.204.398.29.806.524 1.225.67.417.155.843.252 1.272.3.427.05.854.07 1.28.07.942-.01 1.728-.127 2.34-.35.602-.224 1.087-.505 1.436-.845.35-.35.612-.71.768-1.087.165-.38.27-.73.31-1.05.04-.32.06-.572.05-.737l.002-18.97zm-26.892 22.776v-5.534h-11.03c-.23.01-.485 0-.738-.02-.252-.03-.464-.118-.65-.273-.087-.06-.155-.166-.223-.302s-.1-.31-.1-.544v-2.476h12.322v-4.94h-12.32v-1.73c0-.097 0-.213.01-.35.01-.136.04-.262.098-.398.05-.136.127-.262.243-.36.137-.106.3-.193.507-.242.203-.058.407-.078.622-.078h11.164v-5.534H209.79c-.27-.01-.562.02-.883.058-.32.048-.63.136-.95.262-.322.136-.623.34-.904.592-.28.262-.485.534-.63.825-.136.29-.232.583-.272.883-.06.302-.076.602-.066.894v15.62c-.01.36 0 .7.04 1.02.027.33.115.642.262.952.145.3.388.602.73.893.29.233.59.408.892.515.3.116.612.184.91.223.312.03.624.048.934.04h16.258v.003zm-21 0v-5.66h-11.71c-.194.01-.398-.01-.612-.048-.215-.04-.397-.117-.545-.243-.105-.107-.183-.223-.242-.36-.048-.145-.077-.28-.097-.416-.01-.137-.02-.244-.02-.33v-15.72h-7.292v19.854c.01.31.058.61.144.893.1.28.223.543.37.757.146.233.32.417.486.553.213.175.446.31.717.417.27.107.554.185.844.233.303.05.603.068.893.068h17.064zm-23.215 0v-5.534h-11.03c-.232 0-.484.01-.737-.02-.253-.02-.466-.118-.65-.273-.088-.07-.166-.166-.223-.302-.068-.136-.106-.31-.106-.544v-2.476h12.33v-4.94h-12.33v-1.73c0-.097 0-.213.02-.35.01-.136.038-.262.09-.398.058-.136.136-.262.25-.36.138-.106.303-.193.506-.242.205-.058.41-.078.623-.078H181.8v-5.534h-16.223c-.272 0-.563.01-.884.058s-.64.136-.96.262c-.31.136-.622.33-.904.592-.272.252-.486.534-.623.825-.137.29-.232.583-.28.883-.05.302-.06.602-.06.894v15.62c0 .36 0 .7.038 1.02.03.33.116.642.263.952.145.3.388.602.73.893.28.233.58.408.894.515.3.116.61.184.91.223.31.03.622.04.932.04h16.26v.003zm-41.155-22.69v-.086h.057l-.057.087zm0 15.826c.057.33.126.63.204.922.175.65.387 1.233.64 1.748.263.515.553.98.894 1.398.612.757 1.292 1.34 2.03 1.748.747.408 1.592.69 2.533.835.92.155 1.98.213 3.144.213h10v-5.66h-6.26c-.604 0-1.187-.01-1.74-.03-.553-.02-1.067-.086-1.543-.193s-.902-.282-1.27-.534c-.37-.244-.68-.593-.923-1.03-.067-.126-.146-.32-.224-.592-.088-.272-.165-.66-.233-1.165-.058-.505-.087-1.185-.097-2.02 0-.282.01-.602.028-.95.022-.35.05-.72.107-1.088.05-.38.126-.748.224-1.097.098-.36.223-.68.388-.97.253-.447.545-.797.894-1.04.34-.252.73-.427 1.166-.534.436-.106.903-.165 1.427-.194.515-.02 1.077-.02 1.67-.02h6.03v-5.66h-9.543c-.642 0-1.32.02-2.02.087-.71.068-1.408.194-2.117.388-.7.194-1.368.506-2.02.893-.64.398-1.224.932-1.748 1.592-.534.68-.94 1.457-1.224 2.33-.175.515-.31 1.078-.417 1.67l.002 8.952zm0 6.864v-.437l.32.436h-.32z"/><g fill="#004391"><path d="M101.272 166.156v-.428c0-.107-.078-.166-.194-.166h-.05c-.104.02-.222.03-.378.03-.146.02-.32.026-.485.026-.185.02-.35.03-.524.03h-.522c-.302 0-.554-.04-.797-.138-.24-.088-.455-.242-.64-.447-.184-.214-.33-.486-.436-.834-.107-.34-.155-.768-.155-1.282v-1.63c0-.507.047-.933.154-1.282.105-.348.252-.62.436-.833.185-.205.398-.36.64-.448.244-.098.496-.145.798-.145.155 0 .34.02.523.02.176.022.36.03.545.03.185.02.35.028.496.028.155.02.272.03.398.03h.03c.058 0 .086 0 .105-.03.02-.03.028-.06.028-.088v-.533c0-.078-.058-.117-.184-.14-.253-.026-.554-.06-.894-.103-.33-.03-.7-.06-1.058-.06-.37 0-.73.06-1.098.164-.36.105-.7.293-.97.563-.272.272-.497.642-.662 1.088-.184.457-.26 1.05-.26 1.748v1.61c0 .7.076 1.292.26 1.74.165.455.39.825.66 1.097.272.27.612.465.972.572.37.107.73.155 1.098.155h.63c.185 0 .35-.02.506-.028.155 0 .29-.02.407-.05.127-.01.263-.026.38-.06.067 0 .105-.027.164-.06.053-.02.082-.068.082-.146zM107.854 162.62h-2.582l1.058-3.795c.03-.136.107-.214.233-.214.106 0 .175.08.223.215l1.068 3.796zm2.04 3.614l-2.147-7.584c-.067-.184-.126-.32-.214-.446-.097-.106-.186-.194-.29-.253-.118-.067-.226-.105-.35-.137-.117-.028-.224-.048-.33-.048-.107 0-.215.02-.34.048-.117.03-.244.067-.35.138-.117.06-.205.146-.302.272-.088.115-.145.253-.193.426l-2.156 7.584c-.018.027-.018.06-.018.088 0 .125.068.183.204.183h.7c.027 0 .066-.02.115-.048.03-.03.06-.078.078-.138l.758-2.726h3.02l.747 2.73c.01.06.04.106.068.137.03.028.078.05.137.05h.69c.115 0 .193-.06.193-.184.003-.032-.017-.06-.017-.09zM117.398 160.136c0 .302-.06.563-.165.74-.107.202-.264.35-.476.474-.214.117-.466.195-.768.242-.312.04-.66.06-1.05.06h-1.427v-2.913c.078 0 .184 0 .3-.03.128-.03.244-.05.38-.06.127-.02.263-.038.398-.038h.35c.807 0 1.408.107 1.836.32.408.214.622.593.622 1.125v.08zm1.185 6.098l-2.125-3.797c.27-.06.513-.164.756-.282.243-.125.446-.28.622-.456.165-.186.31-.42.397-.66.088-.244.137-.516.137-.827v-.078c0-.445-.087-.826-.263-1.126-.175-.302-.408-.545-.708-.73-.303-.185-.67-.3-1.1-.397-.417-.067-.863-.115-1.33-.115-.184 0-.38.02-.563.02-.194 0-.39.01-.573.01-.204 0-.38.02-.544.03-.184.02-.34.027-.457.027-.126.028-.204.067-.232.097-.038.03-.058.088-.058.166v8.164c0 .06.02.117.05.166.028.04.086.058.145.058h.582c.058 0 .106-.02.136-.077.028-.05.06-.107.06-.167v-3.64H115.233l2.185 3.718c.04.09.087.147.137.147.028.02.086.02.164.02h.737c.097 0 .155-.048.155-.165 0-.03-.02-.06-.03-.108zM126.02 166.32v-.63c0-.097-.04-.154-.137-.154h-2.244c-.302 0-.564-.02-.748-.06-.176-.027-.33-.097-.42-.184-.104-.087-.182-.193-.212-.348-.03-.138-.05-.302-.05-.516v-1.81h3.582c.06 0 .107-.017.146-.076.048-.05.077-.106.077-.165v-.486c0-.057-.03-.104-.077-.163-.04-.05-.088-.078-.146-.078h-3.58v-1.672c0-.212.02-.407.048-.573.03-.154.106-.29.213-.38.09-.097.243-.174.42-.213.183-.05.445-.077.746-.077h2.243c.097 0 .136-.05.136-.156v-.63c0-.027-.01-.077-.03-.125-.028-.03-.057-.06-.087-.06H123.622c-.816 0-1.43.165-1.807.505-.388.33-.572.873-.572 1.65v4.428c0 .786.184 1.34.572 1.67.38.33.99.486 1.807.486h2.281c.03 0 .06-.028.087-.06.02-.026.03-.065.03-.123zM133.748 166.32v-.63c0-.097-.05-.154-.136-.154h-2.244c-.3 0-.563-.02-.747-.06-.175-.027-.33-.097-.418-.184-.105-.087-.184-.193-.214-.348-.03-.138-.048-.302-.048-.516v-1.81h3.58c.06 0 .107-.017.147-.076.05-.05.078-.106.078-.165v-.486c0-.057-.03-.104-.078-.163-.04-.05-.087-.078-.146-.078h-3.58v-1.672c0-.212.02-.407.048-.573.03-.154.107-.29.214-.38.088-.097.243-.174.42-.213.182-.05.445-.077.746-.077h2.244c.087 0 .136-.05.136-.156v-.63c0-.027-.01-.077-.03-.125-.028-.03-.058-.06-.087-.06H131.35c-.815 0-1.428.165-1.806.505-.39.33-.573.874-.573 1.652v4.427c0 .785.185 1.34.574 1.67.38.33.99.485 1.806.485h2.281c.03 0 .06-.027.09-.06.018-.027.028-.066.028-.124zM141.553 160.136c0 .302-.06.563-.165.74-.106.202-.263.35-.476.474-.204.117-.465.195-.768.242-.31.04-.65.06-1.048.06h-1.428v-2.913c.078 0 .185 0 .3-.03.13-.03.244-.05.38-.06.127-.02.263-.038.4-.038h.348c.806 0 1.407.107 1.836.32.407.214.62.593.62 1.125v.08zm1.185 6.098l-2.125-3.797c.27-.06.514-.164.756-.282.242-.125.445-.28.62-.456.176-.186.31-.42.4-.66.086-.244.135-.516.135-.827v-.078c0-.445-.087-.826-.262-1.126-.175-.302-.408-.545-.71-.73-.3-.185-.67-.3-1.087-.397-.426-.067-.873-.115-1.34-.115-.184 0-.378.02-.562.02-.194 0-.39.01-.573.01-.193 0-.377.02-.543.03-.184.02-.34.027-.457.027-.126.028-.203.067-.232.097-.04.03-.06.088-.06.166v8.164c0 .06.02.117.05.166.03.04.087.058.146.058h.582c.06 0 .107-.02.138-.077.027-.05.058-.107.058-.167v-3.64h1.717l2.185 3.718c.04.09.088.147.137.147.027.02.085.02.163.02h.738c.098 0 .155-.048.155-.165 0-.03-.02-.06-.03-.108zM153.253 162.62h-2.583l1.06-3.795c.03-.136.106-.214.23-.214.108 0 .178.08.226.215l1.067 3.796zm2.038 3.614l-2.145-7.584c-.066-.184-.127-.32-.214-.446-.097-.106-.182-.194-.29-.253-.117-.067-.223-.105-.35-.137-.115-.028-.223-.048-.33-.048-.105 0-.214.02-.34.048-.117.03-.243.067-.35.138-.117.06-.204.146-.302.272-.087.115-.146.253-.193.426l-2.155 7.584c-.02.027-.02.06-.02.088 0 .125.067.183.203.183h.7c.028 0 .067-.02.116-.048.027-.03.058-.078.076-.138l.76-2.726h3.02l.747 2.73c.01.06.04.106.068.137.03.028.078.05.138.05h.688c.117 0 .194-.06.194-.184 0-.032-.02-.06-.02-.09zM163.767 166.175v-8.185c0-.06-.028-.107-.06-.146-.028-.05-.077-.077-.136-.077h-.583c-.06 0-.116.027-.145.077-.028.038-.05.087-.05.146v6.922-.048l-3.426-6.874c-.05-.068-.098-.138-.155-.165-.057-.03-.144-.058-.3-.058h-.64c-.088 0-.175.027-.243.087-.058.067-.087.155-.087.243v8.27c0 .062.02.108.05.118.027.02.086.02.144.02h.584c.06 0 .105-.02.137-.06.028-.048.06-.105.06-.165V159.387v.03l3.514 6.902c.066.124.184.182.367.182h.67c.078 0 .145-.028.214-.087.058-.065.087-.153.087-.24zM171.496 162.864c0 .534-.077.97-.195 1.3-.135.35-.32.623-.55.836-.224.214-.497.35-.796.447-.31.087-.64.115-1.01.115h-.738c-.216 0-.408 0-.59-.028v-6.796c.19-.05.395-.078.6-.088.205-.02.447-.04.73-.04.368 0 .698.05 1.01.146.3.088.572.223.795.42.23.213.418.484.552.834.118.348.195.786.195 1.31v1.544zm.97-1.505c0-.622-.087-1.147-.262-1.603-.165-.457-.388-.826-.69-1.126-.31-.3-.688-.514-1.115-.65-.42-.136-.904-.213-1.42-.213-.23 0-.445.02-.66.02-.202.01-.418.028-.6.028-.186.01-.35.03-.507.03-.145.01-.252.027-.33.037-.165.04-.243.127-.243.292v7.923c0 .184.078.27.243.28.078.04.184.05.33.05.155.02.32.03.506.03.182.02.397.027.6.027.215.02.43.02.66.02.516 0 1-.058 1.42-.214.426-.136.805-.35 1.115-.65.302-.29.524-.67.69-1.126.174-.456.262-.98.262-1.603v-1.55zM183.96 166.32v-.63c0-.097-.048-.154-.136-.154h-2.244c-.3 0-.562-.02-.748-.06-.175-.027-.33-.097-.417-.184-.106-.087-.184-.193-.216-.348-.028-.138-.05-.302-.05-.516v-1.81h3.583c.06 0 .104-.017.145-.076.05-.05.078-.106.078-.165v-.486c0-.057-.03-.104-.078-.163-.04-.05-.087-.078-.145-.078h-3.582v-1.672c0-.212.022-.407.05-.573.03-.154.106-.29.215-.38.087-.097.242-.174.417-.213.184-.05.448-.077.748-.077h2.244c.088 0 .137-.05.137-.156v-.63c0-.027-.008-.077-.026-.125-.03-.03-.06-.06-.09-.06h-2.28c-.815 0-1.428.165-1.805.505-.39.33-.574.873-.574 1.65v4.428c0 .786.185 1.34.573 1.67.378.33.99.486 1.804.486H183.845c.03 0 .06-.028.09-.06.018-.026.026-.065.026-.123zM191.767 162.864c0 .534-.078.97-.193 1.3-.137.35-.32.623-.553.836-.224.214-.494.35-.795.447-.31.087-.64.115-1 .115h-.748c-.213 0-.407 0-.592-.028v-6.796c.195-.05.398-.078.612-.088.193-.02.437-.04.73-.04.357 0 .687.05.998.146.302.088.572.223.796.42.234.213.42.484.554.834.115.348.193.786.193 1.31v1.544zm.97-1.505c0-.622-.087-1.147-.26-1.603-.166-.457-.39-.826-.69-1.126-.31-.3-.688-.514-1.107-.65-.427-.136-.912-.213-1.427-.213-.233 0-.446.02-.66.02-.204.01-.42.028-.603.028-.185.01-.35.03-.506.03-.144.01-.252.027-.33.037-.165.04-.242.127-.242.292v7.923c0 .184.077.27.242.28.078.04.185.05.33.05.155.02.32.03.506.03.184.02.398.027.603.027.214.02.426.02.66.02.515 0 1-.058 1.428-.214.42-.136.797-.35 1.11-.65.3-.29.522-.67.687-1.126.175-.456.262-.98.262-1.603l-.002-1.55zM201.437 163.27v-5.28c0-.06-.028-.116-.06-.164-.05-.03-.097-.06-.138-.06h-.584c-.057 0-.105.026-.136.077-.04.04-.06.088-.06.145v5.33c0 .388-.028.73-.087 1.02-.068.28-.185.524-.34.727-.146.195-.36.342-.603.438-.243.106-.546.145-.913.145-.38 0-.68-.038-.923-.145-.243-.1-.456-.243-.61-.438-.146-.202-.253-.445-.32-.747-.06-.29-.088-.622-.088-1v-5.33c0-.058-.03-.104-.06-.144-.048-.05-.097-.078-.137-.078h-.584c-.058 0-.105.027-.136.06-.04.05-.06.106-.06.166v5.28c0 1.125.243 1.94.757 2.455.515.514 1.233.777 2.156.777.912 0 1.62-.262 2.135-.777.527-.514.79-1.33.79-2.456zM209.466 166.156v-.428c0-.107-.077-.166-.193-.166h-.05c-.104.02-.224.03-.38.03-.144.02-.32.026-.485.026-.184.02-.348.03-.523.03h-.525c-.3 0-.55-.04-.794-.138-.242-.088-.457-.242-.64-.447-.186-.214-.33-.486-.438-.834-.105-.34-.155-.768-.155-1.282v-1.63c0-.507.05-.933.155-1.282.106-.348.252-.62.437-.833.184-.205.398-.36.64-.448.244-.098.497-.145.795-.145.155 0 .342.02.525.02.176.022.358.03.545.03.184.02.35.028.496.028.154.02.27.03.397.03h.028c.06 0 .09 0 .106-.03.02-.03.03-.06.03-.088v-.533c0-.078-.06-.117-.186-.14-.253-.026-.552-.06-.894-.103-.33-.03-.698-.06-1.06-.06-.366 0-.727.06-1.095.164-.36.105-.7.293-.97.563-.272.272-.496.642-.66 1.088-.186.457-.266 1.05-.266 1.748v1.61c0 .7.078 1.292.265 1.74.164.455.386.825.66 1.097.27.27.61.465.97.572.37.107.73.155 1.097.155h.632c.183 0 .347-.02.504-.028.155 0 .292-.02.407-.05.128-.01.265-.026.382-.06.067 0 .104-.027.165-.06.05-.02.08-.068.08-.146zM216.04 162.62h-2.572l1.06-3.795c.028-.136.104-.214.232-.214.105 0 .175.08.222.215l1.057 3.796zm2.048 3.614l-2.146-7.584c-.068-.184-.127-.32-.214-.446-.1-.106-.185-.194-.292-.253-.128-.067-.223-.105-.35-.137-.116-.028-.223-.048-.33-.048-.107 0-.214.02-.34.048-.117.03-.244.067-.35.138-.115.06-.215.146-.3.272-.09.115-.156.253-.194.426l-2.156 7.584c-.02.027-.02.06-.02.088 0 .125.067.183.205.183h.7c.028 0 .066-.02.116-.048.028-.03.057-.078.077-.138l.758-2.726h3.02l.737 2.73c.02.06.05.106.078.137.03.028.077.05.137.05h.69c.115 0 .193-.06.193-.184.002-.032-.017-.06-.017-.09zM225.165 158.544v-.553c0-.145-.077-.223-.213-.223h-5.517c-.066 0-.126.027-.175.06-.04.047-.06.104-.06.164v.554c0 .058.02.116.06.146.05.03.106.05.175.05h2.27v7.542c0 .06.022.117.052.166.027.04.087.06.145.06h.583c.06 0 .105-.02.137-.06.028-.05.058-.105.058-.166v-7.543h2.274c.134-.002.21-.06.21-.196zM228.466 166.262v-8.27c0-.06-.027-.107-.06-.147-.027-.05-.077-.078-.135-.078h-.584c-.06 0-.115.028-.144.078-.03.04-.05.088-.05.146v8.272c0 .078.02.137.05.186.03.04.088.058.146.058h.585c.058 0 .105-.02.136-.058.027-.05.056-.108.056-.186zM237.164 162.893c0 .516-.047.942-.135 1.29-.09.35-.234.642-.4.847-.164.213-.358.38-.602.475-.242.105-.504.145-.806.145-.3 0-.562-.04-.804-.145-.243-.098-.458-.264-.623-.475-.165-.205-.292-.496-.38-.846-.087-.35-.137-.775-.137-1.29v-1.516c0-.506.05-.923.138-1.272.087-.35.214-.642.397-.857.165-.213.36-.378.603-.485.242-.088.506-.154.804-.154.303 0 .563.067.806.155.243.107.438.272.603.484.164.215.31.505.397.856.088.348.135.767.135 1.272v1.515h.002zm.97-1.504c0-.632-.074-1.177-.21-1.634-.156-.456-.35-.834-.605-1.145-.263-.28-.564-.497-.932-.63-.36-.137-.738-.215-1.166-.215-.427 0-.815.078-1.163.215-.37.137-.67.35-.934.63-.254.31-.457.69-.602 1.146-.155.457-.216 1-.216 1.633v1.493c0 .63.06 1.193.216 1.65.145.457.348.835.602 1.116.264.31.563.523.933.66.347.137.736.193 1.162.193.428 0 .806-.06 1.166-.194.368-.137.67-.35.93-.66.256-.282.45-.663.605-1.116.137-.458.212-1.02.212-1.65v-1.495zM246.835 166.175v-8.185c0-.06-.03-.107-.06-.146-.027-.05-.077-.077-.136-.077h-.585c-.06 0-.115.027-.144.077-.028.038-.05.087-.05.146v6.922-.048l-3.425-6.874c-.05-.068-.1-.138-.155-.165-.058-.03-.146-.058-.3-.058h-.642c-.087 0-.176.027-.242.087-.06.067-.088.155-.088.243v8.27c0 .062.02.108.05.118.027.02.086.02.143.02h.586c.058 0 .105-.02.136-.06.03-.048.06-.104.06-.165V159.387v.03l3.513 6.902c.068.124.185.182.37.182h.67c.077 0 .145-.028.214-.087.055-.065.085-.153.085-.24zM258.71 166.156v-.428c0-.107-.078-.166-.195-.166h-.048c-.107.02-.223.03-.38.03-.145.02-.32.026-.484.026-.184.02-.35.03-.524.03h-.525c-.303 0-.554-.04-.796-.138-.244-.088-.458-.242-.642-.447-.183-.214-.33-.486-.437-.834-.104-.34-.153-.768-.153-1.282v-1.63c0-.507.05-.933.154-1.282.107-.348.255-.62.438-.833.184-.205.397-.36.64-.448.243-.098.496-.145.797-.145.155 0 .34.02.524.02.175.022.358.03.543.03.184.02.35.028.495.028.155.02.272.03.397.03h.03c.058 0 .087 0 .105-.03.018-.03.027-.06.027-.088v-.533c0-.078-.058-.117-.183-.14-.253-.026-.553-.06-.893-.103-.33-.03-.7-.06-1.06-.06-.37 0-.728.06-1.097.164-.358.105-.698.293-.972.563-.27.272-.494.642-.66 1.088-.183.457-.26 1.05-.26 1.748v1.61c0 .7.076 1.292.26 1.74.166.455.39.825.66 1.097.274.27.614.465.973.572.37.107.728.155 1.098.155h.632c.185 0 .35-.02.506-.028.154 0 .29-.02.408-.05.126-.01.262-.026.38-.06.066 0 .105-.027.164-.06.048-.02.08-.068.08-.146zM266.058 166.32v-.63c0-.097-.05-.154-.137-.154h-2.242c-.303 0-.563-.02-.748-.06-.175-.027-.33-.097-.418-.184-.107-.087-.185-.193-.215-.348-.027-.138-.048-.302-.048-.516v-1.81h3.58c.06 0 .106-.017.145-.076.05-.05.078-.106.078-.165v-.486c0-.057-.03-.104-.078-.163-.038-.05-.087-.078-.145-.078h-3.58v-1.672c0-.212.02-.407.047-.573.028-.154.105-.29.215-.38.088-.097.243-.174.418-.213.184-.05.445-.077.748-.077h2.243c.088 0 .138-.05.138-.156v-.63c0-.027-.012-.077-.03-.125-.028-.03-.058-.06-.086-.06h-2.282c-.815 0-1.428.165-1.805.505-.388.33-.572.874-.572 1.652v4.427c0 .785.183 1.34.572 1.67.38.33.99.485 1.805.485h2.283c.028 0 .058-.027.087-.06.018-.027.028-.066.028-.124zM274.835 166.175v-8.185c0-.06-.03-.107-.06-.146-.027-.05-.077-.077-.136-.077h-.585c-.058 0-.114.027-.144.077-.028.038-.048.087-.048.146v6.922-.048l-3.427-6.874c-.05-.068-.1-.138-.154-.165-.058-.03-.145-.06-.3-.06h-.642c-.087 0-.176.028-.242.088-.06.068-.088.155-.088.242v8.272c0 .06.02.107.05.117.028.02.087.02.143.02h.586c.058 0 .105-.02.136-.06.03-.047.06-.104.06-.164V159.387v.03l3.515 6.902c.066.124.184.182.37.182h.667c.078 0 .146-.028.216-.087.055-.065.085-.153.085-.24zM283.107 158.544v-.553c0-.145-.078-.223-.214-.223h-5.515c-.068 0-.127.027-.177.06-.037.047-.058.104-.058.164v.554c0 .058.02.116.06.146.05.03.105.05.176.05h2.27v7.542c0 .06.02.117.05.166.03.04.088.06.146.06h.583c.06 0 .106-.02.137-.06.028-.05.06-.105.06-.166v-7.543h2.27c.135-.002.213-.06.213-.196zM290.214 166.32v-.63c0-.097-.04-.154-.138-.154h-2.242c-.302 0-.563-.02-.748-.06-.177-.027-.332-.097-.42-.184-.104-.087-.183-.193-.213-.348-.03-.138-.05-.302-.05-.516v-1.81h3.582c.06 0 .107-.017.146-.076.05-.05.08-.106.08-.165v-.486c0-.057-.03-.104-.08-.163-.037-.05-.086-.078-.145-.078h-3.577v-1.672c0-.212.02-.407.05-.573.027-.154.105-.29.212-.38.088-.097.243-.174.42-.213.184-.05.446-.077.747-.077h2.242c.097 0 .137-.05.137-.156v-.63c0-.027-.01-.077-.028-.125-.035-.03-.064-.06-.092-.06H287.817c-.817 0-1.428.165-1.806.505-.387.33-.57.874-.57 1.652v4.427c0 .785.18 1.34.57 1.67.38.33.99.485 1.807.485h2.282c.027 0 .057-.027.087-.06.017-.027.027-.066.027-.124zM298.02 160.136c0 .302-.06.563-.167.74-.105.202-.263.35-.475.474-.214.117-.465.195-.767.242-.31.04-.66.06-1.048.06h-1.428v-2.913c.078 0 .184 0 .302-.03.127-.03.242-.05.38-.06.127-.02.263-.038.397-.038h.35c.805 0 1.406.107 1.835.32.408.214.622.593.622 1.125v.08zm1.184 6.098l-2.125-3.797c.27-.06.512-.164.754-.282.243-.125.448-.28.623-.456.165-.186.31-.42.397-.66.088-.244.138-.516.138-.827v-.078c0-.445-.09-.826-.264-1.126-.175-.302-.407-.545-.708-.73-.3-.185-.67-.3-1.097-.397-.42-.067-.866-.115-1.33-.115-.185 0-.38.02-.563.02-.194 0-.39.01-.572.01-.204 0-.38.02-.544.03-.185.02-.34.027-.457.027-.127.028-.204.067-.233.097-.038.03-.06.088-.06.166v8.164c0 .06.022.117.05.166.03.04.087.058.146.058h.583c.058 0 .106-.02.137-.077.028-.05.058-.107.058-.167v-3.64h1.719l2.185 3.718c.038.09.088.147.136.147.03.02.088.02.165.02h.738c.098 0 .156-.048.156-.165-.003-.03-.023-.06-.032-.108z"/></g></svg>