<svg width="276" height="75" viewBox="0 0 276 75" xmlns="http://www.w3.org/2000/svg"><title>logo_nnk_aliance</title><defs><radialGradient fx="50%" fy="50%" r="49.999%" id="a"><stop stop-color="#FFED00" offset="0%"/><stop stop-color="#FFE900" offset="52.75%"/><stop stop-color="#FFE800" offset="52.81%"/><stop stop-color="#FFD200" offset="56.64%"/><stop stop-color="#FCC000" offset="60.53%"/><stop stop-color="#F9B200" offset="64.52%"/><stop stop-color="#F8A900" offset="68.64%"/><stop stop-color="#F7A600" offset="73.08%"/><stop stop-color="#E84E0F" offset="88.46%"/><stop stop-color="#E84E0F" offset="98.9%"/></radialGradient></defs><g fill="none" fill-rule="evenodd"><path d="M-10.87-11.713h298.383v97.48H-10.87z"/><path d="M97.583 21.72v11.842h11.237v-11.84h7.82V51.97h-7.82V39.352H97.583V51.97h-7.865V21.72h7.865zM130.904 21.72v11.842h11.232v-11.84h7.823V51.97h-7.824V39.352h-11.232V51.97h-7.868V21.72h7.868zM164.22 21.72V34.9l.387-.69 9.508-12.487h9.338L171.09 35.767l13.573 16.205h-9.856l-10.324-14.084-.264-.56V51.97h-7.864V21.723h7.863zM45.533 34.85c-.29-1.303-1.21-3.136-2.31-5l-5.035 7.942-5.046-7.963c-1.1 1.866-2.03 3.71-2.32 5.016-.226.733-.35 1.51-.35 2.318 0 4.256 3.448 7.71 7.705 7.71 4.258 0 7.708-3.454 7.708-7.71 0-.81-.125-1.585-.352-2.315z" fill="#000"/><path d="M21.548 48.732l3.845-5.472-6.586-1.145-2.883 4.086-9.267-1.61-6.375 9.072L11.21 55.57l5.412-7.695 4.926.857zM41.02 19.897l1.147 6.593 5.474-3.85-.855-4.93 7.687-5.407-1.9-10.932-9.076 6.382 1.613 9.267-4.09 2.877zm-7.528 36.898l-1.145-6.59-5.477 3.85.862 4.93-7.695 5.408 1.905 10.925 9.076-6.375-1.615-9.267 4.09-2.88zm19.47-28.835l-3.845 5.473 6.585 1.15 2.88-4.094 9.267 1.613 6.378-9.072L63.3 21.123l-5.413 7.698-4.926-.86zm-26.094-5.32l5.477 3.85 1.146-6.596-4.09-2.875 1.615-9.268-9.076-6.38-1.906 10.927 7.695 5.41-.862 4.93zM47.64 54.054l-5.473-3.85-1.146 6.59 4.09 2.88-1.613 9.266 9.077 6.378 1.9-10.927-7.688-5.404.855-4.93zm-5.466-41.07l-4.92-7.75-4.917 7.75 4.918 7.753 4.92-7.752zm7.535 12.91l8.955-2.006 2.01-8.957-8.963 2.004-2.003 8.958zm-24.907 0l-2.006-8.958-8.958-2.004 2 8.956 8.963 2.005zm30.07 12.452l7.747 4.92 7.754-4.92-7.754-4.915-7.748 4.915zM32.336 63.712l4.918 7.75 4.92-7.75-4.92-7.75-4.918 7.75zm17.372-12.91l2.002 8.957 8.964 2-2.01-8.954-8.957-2.005zM4.14 38.346l7.752 4.92 7.754-4.92-7.754-4.915-7.752 4.915zM24.803 50.8l-8.962 2.006-2 8.953 8.957-1.998 2.006-8.96zm43.046-6.21l-9.27 1.61-2.878-4.086-6.585 1.145 3.844 5.47 4.927-.858 5.413 7.695 10.932-1.908-6.383-9.07zm-51.92-14.1l2.877 4.094 6.586-1.147-3.845-5.475-4.926.86-5.413-7.697L.28 23.035l6.382 9.07 9.265-1.614z" fill="url(#a)" transform="translate(.617 -1.318)"/><path d="M42.122 28.003l-3.934 6.2-3.93-6.2 3.93-6.192 3.934 6.193z" fill="#E94E1B"/><g><path d="M235.83 42.273c.117 0 .236.01.36.01 4.46 0 8.906-.165 13.31-.464-1.757-4.328-3.67-8.6-5.708-12.777h-14.345c2.29 4.314 4.418 8.732 6.384 13.23z" fill="#95C11F"/><path d="M249.5 41.82c-4.406.298-8.85.462-13.31.462-.124 0-.243-.01-.36-.01-5.646 0-11.258-.265-16.826-.757-4.43-.4-8.84-.94-13.208-1.64v.003l8.283 13.944.01.03c7.26.797 14.633 1.198 22.1 1.198 1.55 0 3.103-.018 4.646-.05h.046l8.618-13.18zM266.265 39.924c-1.533-3.69-3.178-7.315-4.923-10.883C256.364 18.883 250.56 9.187 244.03.07h-16.002c2.8 3.515 5.463 7.127 7.992 10.827 3.995 5.84 7.666 11.885 10.974 18.144 2.17 4.092 4.186 8.26 6.057 12.507.376.843.757 1.698 1.12 2.554 1.364 3.233 2.643 6.5 3.823 9.782h.03l8.266-13.916c-.008-.024-.013-.034-.025-.042z" fill="#008295"/><path d="M228.03.07c-.263.36-.518.72-.78 1.08-2.644 3.755-5.17 7.595-7.57 11.527-3.233 5.3-6.224 10.755-8.975 16.364-1.73 3.555-3.37 7.162-4.908 10.835 4.37.7 8.777 1.24 13.21 1.64 1.87-4.238 3.88-8.404 6.036-12.472.73-1.348 1.47-2.695 2.207-4.03 2.37-4.21 4.894-8.33 7.57-12.334.395-.606.808-1.19 1.2-1.783-2.527-3.7-5.19-7.312-7.99-10.828z" fill="#95C11F"/><g fill="#008295"><path d="M273.32 71.045c-2.835 0-3.275-1.945-3.275-3.043 0-1.7 1.26-2.964 3.188-2.964.904 0 1.71.192 2.372.45v-3.113l-.274-.05c-.53-.1-1.525-.323-2.873-.323-5.26 0-7.163 3.067-7.163 6.1 0 3.548 2.48 6.096 7.04 6.096.858 0 1.946-.1 3.3-.47v-3.135c-1.205.392-1.883.452-2.314.452zM259.604 66.28h-3.014v-4.075h-4.504v11.797h4.504v-4.354h3.014v4.354h4.52V62.205h-4.52v4.075zM238.593 65.345c0 1.73 1.22 2.784 2.754 3.035v.04c-.785.113-1.965.576-2.32 2.156l-.77 3.424h4.708l.436-2.955c.15-1.03.98-1.155 1.477-1.155h1.004v4.112h4.512V62.205h-7.05c-1.672 0-4.75.17-4.75 3.14zm6.315-.51h1.182v2.52h-1.115c-.408 0-1.84.022-1.84-1.298-.002-1.187 1.26-1.22 1.773-1.22zM232.636 65.596h-2.553v-3.392h-4.514V74h7.066c3.36 0 4.82-1.96 4.82-4.204 0-2.233-1.463-4.2-4.82-4.2zm-1.765 5.67h-.9v-2.93h.928c.47 0 2.014.023 2.014 1.46 0 1.38-1.414 1.47-2.04 1.47zM213.223 65.962c0 2.2.256 5.034-1.466 5.034-.152 0-.345-.01-.526-.038l1.14 3.205c.23.03.458.034.686.034 4.037 0 4.123-2.986 4.123-6.773v-2.017h2.19v8.53h4.513V62.205h-10.66v3.757zM200.575 62.205l-4.124 11.797h4.515l.793-2.542h3.535l.806 2.542h4.75l-4.198-11.797h-6.077zm1.702 6.49l1.21-3.702h.07l1.235 3.703h-2.515z"/></g></g></g></svg>